<svg width="558" height="173" viewBox="0 0 558 173" fill="none" xmlns="http://www.w3.org/2000/svg">
<path d="M91 14H558V157H91V14Z" fill="#F3CC42"/>
<path d="M94 3C105.455 17.6703 113.78 35.0089 122.389 51.4444C131.164 68.197 141.791 85.8054 146.778 104.167C147.26 105.943 153.104 123 148 123" stroke="black" stroke-width="5" stroke-linecap="round"/>
<path d="M211 61C221.924 61 230.351 58.9683 240.167 53.7222C246.309 50.4391 264.224 43.0647 265.778 34.7778C266.454 31.1726 261.374 27.727 258.222 28.7778C248.17 32.1285 238.101 40.1331 229.889 46.5555C224.019 51.1459 216.501 56.8472 223.833 63.5555C229.327 68.5818 235.902 72.9303 243.444 73.7778C246.517 74.123 250.504 74.8889 253.5 74.8889C255.171 74.8889 258.178 72.5204 260 72" stroke="black" stroke-width="5" stroke-linecap="round"/>
<path d="M259 57C275.286 60.359 295.931 65.7454 312.111 59.1667C318.349 56.6304 328.838 50.1092 326.389 41.9444C323.068 30.8759 294.019 8.93143 284.222 21.6667C278.084 29.6461 272.59 39.7592 270.778 49.6667C268.502 62.1055 277.149 66.9762 287.5 71.9444C300.647 78.2552 318.392 81.5754 332.444 76.2222C334.738 75.3485 337 74.5265 337 72" stroke="black" stroke-width="5" stroke-linecap="round"/>
<path d="M345 48C346.279 39.368 346 30.7024 346 22" stroke="black" stroke-width="5" stroke-linecap="round"/>
<path d="M346 19C349.386 23.4928 352.738 27.986 356.444 32.2222C360.439 36.7874 364.067 43.2277 369.111 46.6667C370.786 47.809 375.95 50.4655 378.111 49.5556C379.715 48.8801 379 44.2014 379 42.7778C379 40.4787 379.135 38.1243 378.944 35.8333C378.558 31.2001 377.695 22.2008 378.056 32.8333C378.541 47.1652 384.01 61.5397 391.556 73.6667C394.704 78.727 402.261 77.2972 407.278 76.2222C414.204 74.7379 420.5 71.2502 426.778 68.1111C431.04 65.9799 437.879 63.8241 440.556 59.4444C442.479 56.2975 437.946 56 436 56" stroke="black" stroke-width="5" stroke-linecap="round"/>
<path d="M294 94C299.164 112.227 308.046 128.28 316.556 145.111C320.197 152.313 323.268 161.691 328 168" stroke="black" stroke-width="5" stroke-linecap="round"/>
<path d="M283 135C299.081 134.035 315.712 127.387 331 122.944C344.48 119.027 357.875 114.922 371 110" stroke="black" stroke-width="5" stroke-linecap="round"/>
<path d="M365 120C366.298 125.911 370.406 128.812 373 134" stroke="black" stroke-width="5" stroke-linecap="round"/>
<path d="M375 145C378.993 154.037 385.766 165.896 395 170" stroke="black" stroke-width="5" stroke-linecap="round"/>
<path d="M396 108C398.06 118.919 402.627 129.884 406.389 140.333C407.707 143.994 407.024 141.35 406.778 138.889C406.177 132.88 405.035 126.009 406.611 120.056C407.489 116.737 411.599 110 415.778 110C421.718 110 430.007 113.967 432.667 119C434.797 123.032 436.91 126.196 438.444 130.556C438.945 131.979 440.358 135.265 439.5 131.833C438.657 128.461 437.21 111.511 442.111 110.111C449.053 108.128 452.771 117.008 455.778 121.444C459.562 127.027 462.138 132.972 463.944 139.444C464.56 141.651 464.98 146.98 466 148" stroke="black" stroke-width="5" stroke-linecap="round"/>
<path d="M483 124C489.065 123.856 512.461 111.513 507.333 104.056C501.632 95.7626 484.383 104.372 481.056 110.611C473.232 125.281 473.125 140.469 488.556 149.556C498.647 155.498 513.164 153 524.222 153C525.643 153 536.569 154.319 538.111 152.778C538.933 151.955 536.727 150.908 536 150" stroke="black" stroke-width="5" stroke-linecap="round"/>
<path d="M66 42C76.1598 37.8877 83.2633 29.8567 93.7778 25.7778C99.5027 23.5569 104.178 23.2019 110.222 22.7778C115.611 22.3996 122.555 20.708 127.833 22.5556C130.514 23.4937 135 27.3936 135 30.2222C135 39.4437 127.321 42.547 120.944 47.6111C117.325 50.4855 113.824 54.669 109.167 55.8333C108.641 55.9647 103.523 57.0508 107.111 56.8333C141.908 54.7244 179.513 43.7162 213.556 57.3333C222.32 60.8392 217.37 69.6536 214.333 75.8889C207.677 89.5547 200.57 103.482 188.111 112.722C162.712 131.56 129.562 137.585 99 142.056C67.1159 146.719 35.1361 147 3 147" stroke="black" stroke-width="5" stroke-linecap="round"/>
</svg>
